<svg width="401" height="229" viewBox="0 0 401 229" fill="none" xmlns="http://www.w3.org/2000/svg">
<path fill-rule="evenodd" clip-rule="evenodd" d="M15.4215 7.70704C15.4215 11.9635 11.9693 15.4141 7.71074 15.4141C3.45221 15.4141 1.86146e-07 11.9635 0 7.70704C-1.86146e-07 3.45057 3.45221 5.69694e-06 7.71073 5.51088e-06C11.9693 5.32482e-06 15.4215 3.45056 15.4215 7.70704ZM58.1507 7.70704C58.1507 11.9635 54.6985 15.4141 50.44 15.4141C46.1815 15.4141 42.7292 11.9635 42.7292 7.70704C42.7292 3.45056 46.1815 5.69694e-06 50.44 5.51088e-06C54.6985 5.32482e-06 58.1507 3.45055 58.1507 7.70704ZM100.88 7.70704C100.88 11.9635 97.4281 15.4141 93.1696 15.4141C88.911 15.4141 85.4588 11.9635 85.4588 7.70704C85.4588 3.45056 88.911 2.9415e-06 93.1696 2.75544e-06C97.4281 2.56938e-06 100.88 3.45055 100.88 7.70704ZM143.609 7.70704C143.609 11.9635 140.157 15.4141 135.899 15.4141C131.64 15.4141 128.188 11.9635 128.188 7.70704C128.188 3.45056 131.64 1.86056e-07 135.899 0C140.157 -1.86056e-07 143.609 3.45055 143.609 7.70704ZM186.339 7.70703C186.339 11.9635 182.887 15.4141 178.628 15.4141C174.37 15.4141 170.917 11.9635 170.917 7.70703C170.917 3.45056 174.37 1.86056e-07 178.628 0C182.887 -1.86056e-07 186.339 3.45055 186.339 7.70703ZM229.068 7.70704C229.068 11.9635 225.615 15.4141 221.357 15.4141C217.098 15.4141 213.646 11.9635 213.646 7.70704C213.646 3.45057 217.098 8.45238e-06 221.357 8.26632e-06C225.615 8.08027e-06 229.068 3.45056 229.068 7.70704ZM15.4215 50.4161C15.4215 54.6726 11.9693 58.1231 7.71075 58.1231C3.45222 58.1231 1.86146e-07 54.6726 0 50.4161C-1.86146e-07 46.1596 3.45222 42.7091 7.71074 42.7091C11.9693 42.7091 15.4215 46.1596 15.4215 50.4161ZM58.1507 50.4161C58.1507 54.6726 54.6985 58.1231 50.44 58.1231C46.1815 58.1231 42.7293 54.6726 42.7293 50.4161C42.7293 46.1596 46.1815 42.7091 50.44 42.7091C54.6985 42.7091 58.1507 46.1596 58.1507 50.4161ZM15.4215 93.1248C15.4215 97.3813 11.9693 100.832 7.71074 100.832C3.45222 100.832 1.86146e-07 97.3813 0 93.1248C-1.86146e-07 88.8684 3.45221 85.4178 7.71074 85.4178C11.9693 85.4178 15.4215 88.8684 15.4215 93.1248ZM58.1507 93.1248C58.1507 97.3813 54.6985 100.832 50.44 100.832C46.1815 100.832 42.7293 97.3813 42.7293 93.1248C42.7293 88.8684 46.1815 85.4178 50.44 85.4178C54.6985 85.4178 58.1507 88.8684 58.1507 93.1248ZM100.88 50.4161C100.88 54.6726 97.4281 58.1231 93.1696 58.1231C88.911 58.1231 85.4588 54.6726 85.4588 50.4161C85.4588 46.1596 88.911 42.7091 93.1696 42.7091C97.4281 42.7091 100.88 46.1596 100.88 50.4161ZM143.609 50.4161C143.609 54.6726 140.157 58.1231 135.899 58.1231C131.64 58.1231 128.188 54.6726 128.188 50.4161C128.188 46.1596 131.64 42.7091 135.899 42.7091C140.157 42.7091 143.609 46.1596 143.609 50.4161ZM100.88 93.1248C100.88 97.3813 97.4281 100.832 93.1696 100.832C88.911 100.832 85.4588 97.3813 85.4588 93.1249C85.4588 88.8684 88.911 85.4178 93.1696 85.4178C97.4281 85.4178 100.88 88.8684 100.88 93.1248ZM143.609 93.1248C143.609 97.3813 140.157 100.832 135.899 100.832C131.64 100.832 128.188 97.3813 128.188 93.1248C128.188 88.8684 131.64 85.4178 135.899 85.4178C140.157 85.4178 143.609 88.8684 143.609 93.1248ZM186.339 50.4161C186.339 54.6726 182.887 58.1231 178.628 58.1231C174.37 58.1231 170.917 54.6726 170.917 50.4161C170.917 46.1596 174.37 42.7091 178.628 42.7091C182.887 42.7091 186.339 46.1596 186.339 50.4161ZM186.339 93.1248C186.339 97.3813 182.887 100.832 178.628 100.832C174.37 100.832 170.917 97.3813 170.917 93.1248C170.917 88.8684 174.37 85.4178 178.628 85.4178C182.887 85.4178 186.339 88.8684 186.339 93.1248ZM229.068 50.4161C229.068 54.6726 225.615 58.1231 221.357 58.1231C217.098 58.1231 213.646 54.6726 213.646 50.4161C213.646 46.1596 217.098 42.7091 221.357 42.7091C225.615 42.7091 229.068 46.1596 229.068 50.4161ZM229.068 93.1248C229.068 97.3813 225.615 100.832 221.357 100.832C217.098 100.832 213.646 97.3813 213.646 93.1249C213.646 88.8684 217.098 85.4178 221.357 85.4178C225.615 85.4178 229.068 88.8684 229.068 93.1248ZM15.4215 135.833C15.4215 140.09 11.9693 143.54 7.71074 143.54C3.45222 143.54 1.86146e-07 140.09 0 135.833C-1.86146e-07 131.577 3.45221 128.126 7.71074 128.126C11.9693 128.126 15.4215 131.577 15.4215 135.833ZM58.1507 135.833C58.1507 140.09 54.6985 143.54 50.44 143.54C46.1815 143.54 42.7293 140.09 42.7293 135.833C42.7293 131.577 46.1815 128.126 50.44 128.126C54.6985 128.126 58.1507 131.577 58.1507 135.833ZM100.88 135.833C100.88 140.09 97.4279 143.54 93.1694 143.54C88.9109 143.54 85.4587 140.09 85.4587 135.833C85.4587 131.577 88.9109 128.126 93.1694 128.126C97.4279 128.126 100.88 131.577 100.88 135.833ZM143.609 135.833C143.609 140.09 140.157 143.54 135.899 143.54C131.64 143.54 128.188 140.09 128.188 135.833C128.188 131.577 131.64 128.126 135.899 128.126C140.157 128.126 143.609 131.577 143.609 135.833ZM186.339 135.833C186.339 140.09 182.886 143.54 178.628 143.54C174.369 143.54 170.917 140.09 170.917 135.833C170.917 131.577 174.369 128.126 178.628 128.126C182.886 128.126 186.339 131.577 186.339 135.833ZM229.068 135.833C229.068 140.09 225.615 143.54 221.357 143.54C217.098 143.54 213.646 140.09 213.646 135.833C213.646 131.577 217.098 128.126 221.357 128.126C225.615 128.126 229.068 131.577 229.068 135.833Z" fill="url(#paint0_linear)"/>
<path fill-rule="evenodd" clip-rule="evenodd" d="M272.813 7.8831C272.813 12.1396 269.36 15.5901 265.102 15.5901C260.843 15.5901 257.391 12.1396 257.391 7.8831C257.391 3.62663 260.843 0.176062 265.102 0.176062C269.36 0.176061 272.813 3.62661 272.813 7.8831ZM315.542 7.88309C315.542 12.1396 312.09 15.5901 307.831 15.5901C303.573 15.5901 300.12 12.1396 300.12 7.88309C300.12 3.62662 303.573 0.176062 307.831 0.176062C312.09 0.176061 315.542 3.62661 315.542 7.88309ZM358.271 7.88309C358.271 12.1396 354.819 15.5901 350.56 15.5901C346.301 15.5901 342.849 12.1396 342.849 7.88309C342.849 3.62662 346.301 0.176059 350.56 0.176059C354.819 0.176059 358.271 3.62661 358.271 7.88309ZM401 7.8831C401 12.1396 397.548 15.5901 393.289 15.5901C389.031 15.5901 385.579 12.1396 385.579 7.8831C385.579 3.62663 389.031 0.176067 393.289 0.176067C397.548 0.176067 401 3.62662 401 7.8831ZM272.813 50.5921C272.813 54.8486 269.36 58.2991 265.102 58.2991C260.843 58.2991 257.391 54.8486 257.391 50.5921C257.391 46.3356 260.843 42.8851 265.102 42.8851C269.36 42.8851 272.813 46.3356 272.813 50.5921ZM315.542 50.5921C315.542 54.8486 312.09 58.2991 307.831 58.2991C303.573 58.2991 300.12 54.8486 300.12 50.5921C300.12 46.3356 303.573 42.885 307.831 42.885C312.09 42.885 315.542 46.3356 315.542 50.5921ZM272.813 93.3009C272.813 97.5574 269.36 101.008 265.102 101.008C260.843 101.008 257.391 97.5574 257.391 93.3009C257.391 89.0444 260.843 85.5939 265.102 85.5939C269.36 85.5939 272.813 89.0444 272.813 93.3009ZM315.542 93.3009C315.542 97.5574 312.09 101.008 307.831 101.008C303.573 101.008 300.12 97.5574 300.12 93.3009C300.12 89.0444 303.573 85.5939 307.831 85.5939C312.09 85.5939 315.542 89.0444 315.542 93.3009ZM358.271 50.5921C358.271 54.8485 354.819 58.2991 350.56 58.2991C346.301 58.2991 342.849 54.8485 342.849 50.5921C342.849 46.3356 346.301 42.885 350.56 42.885C354.819 42.885 358.271 46.3356 358.271 50.5921ZM401 50.5921C401 54.8486 397.548 58.2991 393.289 58.2991C389.031 58.2991 385.579 54.8486 385.579 50.5921C385.579 46.3356 389.031 42.8851 393.289 42.8851C397.548 42.8851 401 46.3356 401 50.5921ZM358.271 93.3009C358.271 97.5574 354.819 101.008 350.56 101.008C346.301 101.008 342.849 97.5574 342.849 93.3009C342.849 89.0444 346.301 85.5939 350.56 85.5939C354.819 85.5939 358.271 89.0444 358.271 93.3009ZM401 93.3009C401 97.5574 397.548 101.008 393.289 101.008C389.031 101.008 385.579 97.5574 385.579 93.3009C385.579 89.0444 389.031 85.5939 393.289 85.5939C397.548 85.5939 401 89.0444 401 93.3009ZM272.813 136.009C272.813 140.266 269.36 143.716 265.102 143.716C260.843 143.716 257.391 140.266 257.391 136.009C257.391 131.753 260.843 128.302 265.102 128.302C269.36 128.302 272.813 131.753 272.813 136.009ZM315.542 136.009C315.542 140.266 312.09 143.716 307.831 143.716C303.573 143.716 300.12 140.266 300.12 136.009C300.12 131.753 303.573 128.302 307.831 128.302C312.09 128.302 315.542 131.753 315.542 136.009ZM358.271 136.009C358.271 140.266 354.819 143.716 350.56 143.716C346.301 143.716 342.849 140.266 342.849 136.009C342.849 131.753 346.301 128.302 350.56 128.302C354.819 128.302 358.271 131.753 358.271 136.009ZM401 136.009C401 140.266 397.548 143.716 393.289 143.716C389.031 143.716 385.579 140.266 385.579 136.009C385.579 131.753 389.031 128.302 393.289 128.302C397.548 128.302 401 131.753 401 136.009Z" fill="url(#paint1_linear)"/>
<path fill-rule="evenodd" clip-rule="evenodd" d="M15.4215 50.2819C15.4215 54.5384 11.9693 57.9889 7.71074 57.9889C3.45221 57.9889 1.86146e-07 54.5384 0 50.2819C-1.86146e-07 46.0254 3.45221 42.5749 7.71073 42.5749C11.9693 42.5749 15.4215 46.0254 15.4215 50.2819ZM58.1507 50.2819C58.1507 54.5384 54.6985 57.9889 50.44 57.9889C46.1815 57.9889 42.7293 54.5384 42.7293 50.2819C42.7293 46.0254 46.1815 42.5749 50.44 42.5749C54.6985 42.5749 58.1507 46.0254 58.1507 50.2819ZM15.4215 92.9904C15.4215 97.2469 11.9693 100.697 7.71074 100.697C3.45221 100.697 1.86146e-07 97.2469 0 92.9904C-1.86146e-07 88.7339 3.45221 85.2834 7.71073 85.2834C11.9693 85.2834 15.4215 88.7339 15.4215 92.9904ZM58.1507 92.9904C58.1507 97.2469 54.6985 100.697 50.44 100.697C46.1815 100.697 42.7292 97.2469 42.7292 92.9904C42.7292 88.7339 46.1815 85.2834 50.44 85.2834C54.6985 85.2834 58.1507 88.7339 58.1507 92.9904ZM100.88 50.2819C100.88 54.5384 97.4279 57.9889 93.1694 57.9889C88.9109 57.9889 85.4587 54.5384 85.4587 50.2819C85.4587 46.0254 88.9109 42.5749 93.1694 42.5749C97.4279 42.5749 100.88 46.0254 100.88 50.2819ZM143.609 50.2821C143.609 54.5386 140.157 57.9892 135.898 57.9892C131.64 57.9892 128.188 54.5386 128.188 50.2821C128.188 46.0257 131.64 42.5751 135.898 42.5751C140.157 42.5751 143.609 46.0256 143.609 50.2821ZM100.88 92.9904C100.88 97.2469 97.4279 100.697 93.1694 100.697C88.9109 100.697 85.4587 97.2469 85.4587 92.9904C85.4587 88.7339 88.9109 85.2834 93.1694 85.2834C97.4279 85.2834 100.88 88.7339 100.88 92.9904ZM143.609 92.9904C143.609 97.2469 140.157 100.697 135.898 100.697C131.64 100.697 128.188 97.2469 128.188 92.9904C128.188 88.7339 131.64 85.2834 135.898 85.2834C140.157 85.2834 143.609 88.7339 143.609 92.9904ZM186.339 50.2821C186.339 54.5386 182.886 57.9892 178.628 57.9892C174.369 57.9892 170.917 54.5386 170.917 50.2821C170.917 46.0257 174.369 42.5751 178.628 42.5751C182.886 42.5751 186.339 46.0256 186.339 50.2821ZM186.339 92.9904C186.339 97.2469 182.887 100.697 178.628 100.697C174.37 100.697 170.917 97.2469 170.917 92.9904C170.917 88.7339 174.37 85.2834 178.628 85.2834C182.887 85.2834 186.339 88.7339 186.339 92.9904ZM229.068 50.2822C229.068 54.5386 225.615 57.9892 221.357 57.9892C217.098 57.9892 213.646 54.5386 213.646 50.2822C213.646 46.0257 217.098 42.5751 221.357 42.5751C225.615 42.5751 229.068 46.0257 229.068 50.2822ZM229.068 92.9904C229.068 97.2469 225.615 100.697 221.357 100.697C217.098 100.697 213.646 97.2469 213.646 92.9904C213.646 88.7339 217.098 85.2834 221.357 85.2834C225.615 85.2834 229.068 88.7339 229.068 92.9904ZM15.4215 135.699C15.4215 139.956 11.9693 143.406 7.71075 143.406C3.45222 143.406 1.86146e-07 139.956 0 135.699C-1.86146e-07 131.443 3.45222 127.992 7.71074 127.992C11.9693 127.992 15.4215 131.443 15.4215 135.699ZM58.1507 135.699C58.1507 139.956 54.6985 143.406 50.44 143.406C46.1815 143.406 42.7293 139.956 42.7293 135.699C42.7293 131.443 46.1815 127.992 50.44 127.992C54.6985 127.992 58.1507 131.443 58.1507 135.699ZM15.4215 178.408C15.4215 182.665 11.9693 186.115 7.71074 186.115C3.45222 186.115 1.86146e-07 182.665 0 178.408C-1.86146e-07 174.152 3.45221 170.701 7.71074 170.701C11.9693 170.701 15.4215 174.152 15.4215 178.408ZM58.1507 178.408C58.1507 182.665 54.6985 186.115 50.44 186.115C46.1815 186.115 42.7293 182.665 42.7293 178.408C42.7293 174.152 46.1815 170.701 50.44 170.701C54.6985 170.701 58.1507 174.152 58.1507 178.408ZM100.88 135.699C100.88 139.956 97.4279 143.406 93.1694 143.406C88.9109 143.406 85.4587 139.956 85.4587 135.699C85.4587 131.443 88.9109 127.992 93.1694 127.992C97.4279 127.992 100.88 131.443 100.88 135.699ZM143.609 135.699C143.609 139.956 140.157 143.406 135.898 143.406C131.64 143.406 128.188 139.956 128.188 135.699C128.188 131.443 131.64 127.992 135.898 127.992C140.157 127.992 143.609 131.443 143.609 135.699ZM100.88 178.408C100.88 182.665 97.4279 186.115 93.1694 186.115C88.9109 186.115 85.4587 182.665 85.4587 178.408C85.4587 174.152 88.9109 170.701 93.1694 170.701C97.4279 170.701 100.88 174.152 100.88 178.408ZM143.609 178.408C143.609 182.665 140.157 186.115 135.898 186.115C131.64 186.115 128.188 182.665 128.188 178.408C128.188 174.152 131.64 170.701 135.898 170.701C140.157 170.701 143.609 174.152 143.609 178.408ZM186.339 135.699C186.339 139.956 182.887 143.406 178.628 143.406C174.37 143.406 170.917 139.956 170.917 135.699C170.917 131.443 174.37 127.992 178.628 127.992C182.887 127.992 186.339 131.443 186.339 135.699ZM186.339 178.408C186.339 182.665 182.887 186.115 178.628 186.115C174.37 186.115 170.917 182.665 170.917 178.408C170.917 174.152 174.37 170.701 178.628 170.701C182.887 170.701 186.339 174.152 186.339 178.408ZM229.068 135.699C229.068 139.956 225.615 143.406 221.357 143.406C217.098 143.406 213.646 139.956 213.646 135.699C213.646 131.443 217.098 127.992 221.357 127.992C225.615 127.992 229.068 131.443 229.068 135.699ZM229.068 178.408C229.068 182.665 225.615 186.115 221.357 186.115C217.098 186.115 213.646 182.665 213.646 178.408C213.646 174.152 217.098 170.701 221.357 170.701C225.615 170.701 229.068 174.152 229.068 178.408ZM15.4215 221.117C15.4215 225.373 11.9693 228.824 7.71074 228.824C3.45222 228.824 1.86146e-07 225.373 0 221.117C-1.86146e-07 216.86 3.45221 213.41 7.71074 213.41C11.9693 213.41 15.4215 216.86 15.4215 221.117ZM58.1507 221.117C58.1507 225.373 54.6985 228.824 50.44 228.824C46.1815 228.824 42.7293 225.373 42.7293 221.117C42.7293 216.86 46.1815 213.41 50.44 213.41C54.6985 213.41 58.1507 216.86 58.1507 221.117ZM100.88 221.117C100.88 225.373 97.4279 228.824 93.1694 228.824C88.9109 228.824 85.4587 225.373 85.4587 221.117C85.4587 216.86 88.9109 213.41 93.1694 213.41C97.4279 213.41 100.88 216.86 100.88 221.117ZM143.609 221.117C143.609 225.373 140.157 228.824 135.898 228.824C131.64 228.824 128.188 225.373 128.188 221.117C128.188 216.86 131.64 213.41 135.898 213.41C140.157 213.41 143.609 216.86 143.609 221.117ZM186.339 221.117C186.339 225.373 182.886 228.824 178.628 228.824C174.369 228.824 170.917 225.373 170.917 221.117C170.917 216.86 174.369 213.41 178.628 213.41C182.886 213.41 186.339 216.86 186.339 221.117ZM229.068 221.117C229.068 225.373 225.615 228.824 221.357 228.824C217.098 228.824 213.646 225.373 213.646 221.117C213.646 216.86 217.098 213.41 221.357 213.41C225.615 213.41 229.068 216.86 229.068 221.117Z" fill="url(#paint2_linear)"/>
<path fill-rule="evenodd" clip-rule="evenodd" d="M272.813 50.4584C272.813 54.7148 269.36 58.1654 265.102 58.1654C260.843 58.1654 257.391 54.7148 257.391 50.4584C257.391 46.2019 260.843 42.7513 265.102 42.7513C269.36 42.7513 272.813 46.2019 272.813 50.4584ZM315.542 50.458C315.542 54.7144 312.09 58.165 307.831 58.165C303.573 58.165 300.12 54.7144 300.12 50.458C300.12 46.2015 303.573 42.7509 307.831 42.7509C312.09 42.7509 315.542 46.2015 315.542 50.458ZM272.813 93.1666C272.813 97.4231 269.36 100.874 265.102 100.874C260.843 100.874 257.391 97.4231 257.391 93.1666C257.391 88.9102 260.843 85.4596 265.102 85.4596C269.36 85.4596 272.813 88.9101 272.813 93.1666ZM315.542 93.1666C315.542 97.4231 312.09 100.874 307.831 100.874C303.573 100.874 300.12 97.4231 300.12 93.1666C300.12 88.9102 303.573 85.4596 307.831 85.4596C312.09 85.4596 315.542 88.9101 315.542 93.1666ZM358.271 50.458C358.271 54.7144 354.819 58.165 350.56 58.165C346.301 58.165 342.849 54.7144 342.849 50.458C342.849 46.2015 346.301 42.7509 350.56 42.7509C354.819 42.7509 358.271 46.2015 358.271 50.458ZM401 50.458C401 54.7145 397.548 58.1651 393.289 58.1651C389.031 58.1651 385.579 54.7145 385.579 50.458C385.579 46.2016 389.031 42.751 393.289 42.751C397.548 42.751 401 46.2016 401 50.458ZM358.271 93.1666C358.271 97.4231 354.819 100.874 350.56 100.874C346.301 100.874 342.849 97.4231 342.849 93.1666C342.849 88.9102 346.301 85.4596 350.56 85.4596C354.819 85.4596 358.271 88.9101 358.271 93.1666ZM401 93.1666C401 97.4231 397.548 100.874 393.289 100.874C389.031 100.874 385.579 97.4231 385.579 93.1666C385.579 88.9102 389.031 85.4596 393.289 85.4596C397.548 85.4596 401 88.9101 401 93.1666ZM272.813 135.876C272.813 140.132 269.36 143.583 265.102 143.583C260.843 143.583 257.391 140.132 257.391 135.876C257.391 131.619 260.843 128.169 265.102 128.169C269.36 128.169 272.813 131.619 272.813 135.876ZM315.542 135.876C315.542 140.132 312.09 143.583 307.831 143.583C303.573 143.583 300.12 140.132 300.12 135.876C300.12 131.619 303.573 128.169 307.831 128.169C312.09 128.169 315.542 131.619 315.542 135.876ZM272.813 178.584C272.813 182.841 269.36 186.291 265.102 186.291C260.843 186.291 257.391 182.841 257.391 178.584C257.391 174.328 260.843 170.877 265.102 170.877C269.36 170.877 272.813 174.328 272.813 178.584ZM315.542 178.584C315.542 182.841 312.09 186.291 307.831 186.291C303.573 186.291 300.12 182.841 300.12 178.584C300.12 174.328 303.573 170.877 307.831 170.877C312.09 170.877 315.542 174.328 315.542 178.584ZM358.271 135.876C358.271 140.132 354.819 143.583 350.56 143.583C346.301 143.583 342.849 140.132 342.849 135.876C342.849 131.619 346.301 128.169 350.56 128.169C354.819 128.169 358.271 131.619 358.271 135.876ZM401 135.876C401 140.132 397.548 143.583 393.289 143.583C389.031 143.583 385.579 140.132 385.579 135.876C385.579 131.619 389.031 128.169 393.289 128.169C397.548 128.169 401 131.619 401 135.876ZM358.271 178.584C358.271 182.841 354.819 186.291 350.56 186.291C346.301 186.291 342.849 182.841 342.849 178.584C342.849 174.328 346.301 170.877 350.56 170.877C354.819 170.877 358.271 174.328 358.271 178.584ZM401 178.584C401 182.841 397.548 186.291 393.289 186.291C389.031 186.291 385.579 182.841 385.579 178.584C385.579 174.328 389.031 170.877 393.289 170.877C397.548 170.877 401 174.328 401 178.584ZM272.813 221.293C272.813 225.549 269.36 229 265.102 229C260.843 229 257.391 225.549 257.391 221.293C257.391 217.036 260.843 213.586 265.102 213.586C269.36 213.586 272.813 217.036 272.813 221.293ZM315.542 221.293C315.542 225.549 312.09 229 307.831 229C303.573 229 300.12 225.549 300.12 221.293C300.12 217.036 303.573 213.586 307.831 213.586C312.09 213.586 315.542 217.036 315.542 221.293ZM358.271 221.293C358.271 225.549 354.819 229 350.56 229C346.301 229 342.849 225.549 342.849 221.293C342.849 217.036 346.301 213.586 350.56 213.586C354.819 213.586 358.271 217.036 358.271 221.293ZM401 221.293C401 225.549 397.548 229 393.289 229C389.031 229 385.579 225.549 385.579 221.293C385.579 217.036 389.031 213.586 393.289 213.586C397.548 213.586 401 217.036 401 221.293Z" fill="url(#paint3_linear)"/>
<defs>
<linearGradient id="paint0_linear" x1="-37.8232" y1="-27.2172" x2="111.233" y2="308.564" gradientUnits="userSpaceOnUse">
<stop stop-color="#57C35B"/>
<stop offset="1" stop-color="#00498F"/>
</linearGradient>
<linearGradient id="paint1_linear" x1="-37.8232" y1="-27.2172" x2="111.233" y2="308.564" gradientUnits="userSpaceOnUse">
<stop stop-color="#57C35B"/>
<stop offset="1" stop-color="#00498F"/>
</linearGradient>
<linearGradient id="paint2_linear" x1="-37.8232" y1="-27.2172" x2="111.233" y2="308.564" gradientUnits="userSpaceOnUse">
<stop stop-color="#57C35B"/>
<stop offset="1" stop-color="#00498F"/>
</linearGradient>
<linearGradient id="paint3_linear" x1="-37.8232" y1="-27.2172" x2="111.233" y2="308.564" gradientUnits="userSpaceOnUse">
<stop stop-color="#57C35B"/>
<stop offset="1" stop-color="#00498F"/>
</linearGradient>
</defs>
</svg>
